<svg class="img-fluid w-md-80 sss" version="1.2" xmlns="http://www.w3.org/2000/svg" viewBox="0 0 419 480" width="419" height="480">
	<link xmlns="http://www.w3.org/1999/xhtml" rel="stylesheet" href="assets/css/style.css" type="text/css"/>
	<link xmlns="http://www.w3.org/1999/xhtml" rel="stylesheet" href="assets/css/main.css" type="text/css"/>
	<title>scan-qr-section-svg</title>
        <link rel="stylesheet" href="assets/css/main.css" />

        <link rel="stylesheet" href="assets/css/style.css" />
	<defs>
		<clipPath clipPathUnits="userSpaceOnUse" id="cp1">
			<path d="m120.15 153.49c0-14.69 11.91-26.6 26.6-26.6h121.77c14.69 0 26.6 11.91 26.6 26.6v294.72c0 14.7-11.91 26.61-26.6 26.61h-121.77c-14.69 0-26.6-11.91-26.6-26.61z"></path>
		</clipPath>
		<clipPath clipPathUnits="userSpaceOnUse" id="cp2">
			<path d="m147.04 131.74h121.2c2.89 0 5.76 0.57 8.43 1.68 2.67 1.1 5.1 2.73 7.15 4.77 2.04 2.05 3.67 4.48 4.77 7.15 1.11 2.67 1.68 5.54 1.68 8.43v294.16c0 2.89-0.57 5.76-1.68 8.43-1.1 2.68-2.73 5.1-4.77 7.15-2.05 2.05-4.48 3.67-7.15 4.78-2.68 1.11-5.54 1.68-8.44 1.68h-121.19c-2.9 0-5.76-0.57-8.44-1.68-2.67-1.11-5.1-2.73-7.14-4.78-2.05-2.04-3.67-4.47-4.78-7.15-1.11-2.67-1.68-5.53-1.68-8.43v-294.16c0-2.89 0.57-5.76 1.68-8.43 1.11-2.67 2.73-5.1 4.78-7.15 2.04-2.04 4.47-3.67 7.14-4.77 2.68-1.11 5.54-1.68 8.44-1.68z"></path>
		</clipPath>
		<clipPath clipPathUnits="userSpaceOnUse" id="cp3">
			<path d="m0 49.9h415.27v425.86h-415.27z"></path>
		</clipPath>
		<clipPath clipPathUnits="userSpaceOnUse" id="cp4">
			<path d="m136.52 418.13h142.22v40.31h-142.22z"></path>
		</clipPath>
		<clipPath clipPathUnits="userSpaceOnUse" id="cp5">
			<path d="m166.63 373.79h81.71q1.09 0 2.1 0.42 1.01 0.42 1.78 1.19 0.77 0.77 1.18 1.77 0.42 1.01 0.42 2.1v9.66q0 1.09-0.41 2.09-0.42 1.01-1.19 1.78-0.77 0.77-1.78 1.19-1.01 0.41-2.1 0.41h-81.71q-1.09 0-2.1-0.41-1-0.42-1.78-1.19-0.76-0.77-1.18-1.78-0.42-1-0.42-2.09v-9.66q0-1.09 0.42-2.1 0.42-1 1.18-1.77 0.78-0.77 1.78-1.19 1.01-0.42 2.1-0.42z"></path>
		</clipPath>
		<clipPath clipPathUnits="userSpaceOnUse" id="cp6">
			<path d="m0 49.9h415.27v425.86h-415.27z"></path>
		</clipPath>
		<clipPath clipPathUnits="userSpaceOnUse" id="cp7">
			<path d="m133.39 139.51h149.11v160.4h-149.11z"></path>
		</clipPath>
		<clipPath clipPathUnits="userSpaceOnUse" id="cp8">
			<path d="m149.02 301.33h117.22v39.96h-117.22z"></path>
		</clipPath>
		<clipPath clipPathUnits="userSpaceOnUse" id="cp9">
			<path d="m0 49.9h415.27v425.86h-415.27z"></path>
		</clipPath>
		<clipPath clipPathUnits="userSpaceOnUse" id="cp10">
			<path d="m0 49.9h415.27v425.86h-415.27z"></path>
		</clipPath>
		<clipPath clipPathUnits="userSpaceOnUse" id="cp11">
			<path d="m107.34 46.46h53.01v69.54h-53.01z"></path>
		</clipPath>
		<clipPath clipPathUnits="userSpaceOnUse" id="cp12">
			<path d="m318.27 163.33h100.26v315.79h-100.26z"></path>
		</clipPath>
	</defs>
	<style>
		.sss tspan { white-space:pre } 
		.sss .s0 { fill:  var(--scan-bg-svg);} 
		.sss .s1 { fill: #c1efc8 } 
		.sss .s2 { fill: #369845 } 
		.sss .s3 { fill: #ebf6f8 } 
		.sss .s4 { fill: none;stroke: #072359;stroke-width: .3 } 
		.sss .s5 { fill: #13571d } 
		.sss .s6 { fill: #072359 } 
		.sss .s7 { fill: none;stroke: #f7fefe;stroke-linecap: round;stroke-width: 2 } 
		.sss .t8 { font-size: 8px;fill: #fcfdff;font-weight: 700;font-family: "Lato-Bold", "Lato" } 
		.sss .s9 { fill: #54d6d3 } 
		.sss .s10 { fill: none;stroke: var(--strock-se);stroke-linecap: round;stroke-dasharray: 2 } 
		.sss .s11 { fill: #f7fefe } 
		.sss .s12 { fill: #92c79a } 
		.sss .s13 { fill: #adddb4 } 
		.sss .s14 { fill: none } 
		.sss .s15 { fill: #d2d1d1 } 
		.sss .s16 { fill: #449b23 } 
		.sss .s17 { fill: #1c9229 } 
		.sss .s18 { fill: none;stroke: #ffffff;stroke-width: 8 } 
		.sss .s19 { fill: #f47567 } 
		.sss .s20 { fill: #c7dfea } 
		.sss .s21 { fill: #aecbd8 } 
		.sss .s22 { fill: #fff0e7 } 
		.sss .s23 { fill: #0f3358 } 
		.sss .s24 { fill: #274f74 } 
		.sss .s25 { fill: #837984 } 
		.sss .s26 { fill: #5f505e } 
		.sss .s27 { fill: #414156 } 
		.sss .s28 { fill: #313044 } 
		.sss .s29 { fill: #5e5e73 } 
		.sss .s30 { fill: #ff917b } 
		.sss .s31 { fill: #cde7f4 } 
		.sss .s32 { fill: #fb9988 } 
		.sss .s33 { fill: #ffad9d } 
		.sss .s34 { fill: #55062c } 
		.sss .s35 { fill: #3f0727 } 
		.sss .s36 { fill: #fd7d6f } 
		.sss .s37 { fill: #333333 } 
		.sss .s38 { fill: #161818 } 
		.sss .s39 { fill: #6f0a32 } 
		.sss .s40 { fill: #205828 } 
		.sss .s41 { fill: #909aa3 } 
		.sss .s42 { fill: #ffdaba } 
		.sss .s43 { fill: none;stroke: #db4242;stroke-linecap: round;stroke-linejoin: round;stroke-width: .8 } 
	</style>
	<g id="Group_96265" class="sss">
		<g id="Group_96258">
			<path id="Path_136770" class="s0" d="m206 36.6c39.9 21.6 29.5 73.8 56.7 104.9 31.3 35.7 87.1 40.5 114.2 80.9 19.4 28.8 15.6 68.3-0.4 99.3-33.4 64.7-116.4 97.7-187.3 79.4-71-18.3-125.5-82.5-138-154q-1.6-9.2-2.3-18.6c-4.9-60.3 11.8-130.1 57.9-172.9q1.2-1 2.4-2.1 1.2-1 2.4-2 1.3-1 2.5-2 1.3-0.9 2.6-1.8c24.9-17.6 61.3-26.3 89.3-11.1z"></path>
			<g id="Group_96220" clip-path="url(#cp1)">
				<g id="Group_96220">
					<path id="Rectangle_152454" class="s1" d="m134.9 523.4l-111.4-367.2 256.9-77.9 111.4 367.2z"></path>
				</g>
			</g>
			<g id="Group_96222" clip-path="url(#cp2)">
				<g id="Group_96222">
					<path id="Rectangle_152456" class="s2" d="m125 131.7h165.3v338.3h-165.3z"></path>
				</g>
			</g>
			<g id="Group_96227" clip-path="url(#cp3)">
				<g id="Group_96227">
					<path id="Path_139310" class="s3" d="m148.4 139.5h14.7q0.5 0 0.9 0.2 0.4 0.2 0.8 0.5 0.3 0.3 0.5 0.8 0.2 0.4 0.2 0.9 0 1.7 0.6 3.2 0.6 1.5 1.8 2.7 1.2 1.1 2.7 1.8 1.5 0.6 3.2 0.6h67.7q1.6 0 3.2-0.6 1.5-0.7 2.7-1.8 1.1-1.2 1.8-2.7 0.6-1.5 0.6-3.2 0-0.5 0.2-0.9 0.2-0.5 0.5-0.8 0.3-0.3 0.8-0.5 0.4-0.2 0.9-0.2h14.7c2 0 4.1 0.4 6 1.2 1.8 0.8 3.6 1.9 5 3.4 1.5 1.4 2.6 3.2 3.4 5.1 0.8 1.9 1.2 3.9 1.2 5.9v291.5c0 2-0.4 4-1.2 5.9-0.8 1.9-1.9 3.7-3.4 5.1-1.4 1.5-3.2 2.6-5.1 3.4-1.9 0.8-3.9 1.2-5.9 1.2h-118.5c-2 0-4.1-0.4-6-1.2-1.9-0.8-3.6-1.9-5.1-3.4-1.4-1.4-2.6-3.2-3.3-5.1-0.8-1.9-1.2-3.9-1.2-5.9v-291.5c0-2 0.4-4 1.2-5.9 0.7-1.9 1.9-3.7 3.3-5.1 1.5-1.5 3.2-2.6 5.1-3.4 1.9-0.8 4-1.2 6-1.2z"></path>
					<path id="Path_139311" class="s4" d="m148.4 139.5h14.7q0.5 0 0.9 0.2 0.4 0.2 0.8 0.5 0.3 0.3 0.5 0.8 0.2 0.4 0.2 0.9 0 1.7 0.6 3.2 0.6 1.5 1.8 2.7 1.2 1.1 2.7 1.8 1.5 0.6 3.2 0.6h67.7q1.6 0 3.2-0.6 1.5-0.7 2.7-1.8 1.1-1.2 1.8-2.7 0.6-1.5 0.6-3.2 0-0.5 0.2-0.9 0.2-0.5 0.5-0.8 0.3-0.3 0.8-0.5 0.4-0.2 0.9-0.2h14.7c2 0 4.1 0.4 6 1.2 1.8 0.8 3.6 1.9 5 3.4 1.5 1.4 2.6 3.2 3.4 5.1 0.8 1.9 1.2 3.9 1.2 5.9v291.5c0 2-0.4 4-1.2 5.9-0.8 1.9-1.9 3.7-3.4 5.1-1.4 1.5-3.2 2.6-5.1 3.4-1.9 0.8-3.9 1.2-5.9 1.2h-118.5c-2 0-4.1-0.4-6-1.2-1.9-0.8-3.6-1.9-5.1-3.4-1.4-1.4-2.6-3.2-3.3-5.1-0.8-1.9-1.2-3.9-1.2-5.9v-291.5c0-2 0.4-4 1.2-5.9 0.7-1.9 1.9-3.7 3.3-5.1 1.5-1.5 3.2-2.6 5.1-3.4 1.9-0.8 4-1.2 6-1.2z"></path>
					<path id="Rectangle_152458" class="s5" d="m295.1 173.9h1.8v12.9h-1.8z"></path>
					<path id="Rectangle_152459" class="s5" d="m295.1 173.9h0.9v12.9h-0.9z"></path>
					<path id="Rectangle_152460" class="s5" d="m295.1 198h1.8v24.2h-1.8z"></path>
					<path id="Rectangle_152461" class="s5" d="m295.1 198h0.9v24.2h-0.9z"></path>
					<path id="Rectangle_152462" class="s5" d="m295.1 228.1h1.8v24.2h-1.8z"></path>
					<path id="Rectangle_152463" class="s5" d="m295.1 228.1h0.9v24.2h-0.9z"></path>
					<path id="Rectangle_152464" class="s5" d="m118.4 206.8h1.7v37.8h-1.7z"></path>
					<path id="Rectangle_152465" class="s5" d="m119.3 206.8h0.8v37.8h-0.8z"></path>
					<g id="Group_96226" style="opacity: .1">
						<g id="Group_96225">
							<g id="Group_96224" clip-path="url(#cp4)">
								<g id="Group_96224">
									<path id="Path_139312" class="s2" d="m143.5 457.6c-1.4-0.6-2.6-1.4-3.7-2.5-1-1-1.9-2.2-2.4-3.6-0.6-1.4-0.9-2.8-0.9-4.3v-17.8c0-1.5 0.3-3 0.9-4.3 0.5-1.4 1.4-2.6 2.4-3.7 1.1-1 2.3-1.8 3.7-2.4 1.3-0.6 2.8-0.9 4.3-0.9h119.7c1.5 0 2.9 0.3 4.3 0.9 1.4 0.6 2.6 1.4 3.6 2.4 1.1 1.1 1.9 2.3 2.5 3.7 0.6 1.3 0.8 2.8 0.8 4.3v17.8c0 1.5-0.2 2.9-0.8 4.3-0.6 1.4-1.4 2.6-2.5 3.6-1 1.1-2.2 1.9-3.6 2.5-1.4 0.6-2.8 0.8-4.3 0.8h-119.7c-1.5 0-3-0.2-4.3-0.8z"></path>
								</g>
							</g>
						</g>
					</g>
					<path id="Rectangle_152467" class="s3" d="m138.3 214.1h138.7v138.8h-138.7z"></path>
					<path id="Rectangle_152468" class="s6" d="m187.7 228h4.4v4.4h-4.4z"></path>
					<path id="Path_139313" class="s6" d="m209.9 236.9h-13.4v-8.9h4.5v4.4h13.3v4.5h4.4v-8.9h4.5v4.4h4.4v4.5h-4.4v4.4h4.4v4.5h-8.9v-4.5h-4.4v4.5h-4.4c0 0 0-8.9 0-8.9z"></path>
					<path id="Rectangle_152469" class="s6" d="m201 241.3h4.4v4.5h-4.4z"></path>
					<path id="Path_139314" class="s6" d="m218.7 250.2v8.9h-4.4v-13.3h4.4z"></path>
					<path id="Rectangle_152470" class="s6" d="m205.4 245.8h4.5v4.4h-4.5z"></path>
					<path id="Path_139315" class="s6" d="m187.7 250.2v-8.9h8.8v8.9h8.9v4.4h-4.4v4.5h-4.5v-4.5h-4.4v-4.4z"></path>
					<path id="Path_139316" class="s6" d="m223.2 254.6v-4.4h4.4v8.9h-4.4z"></path>
					<path id="Path_139317" class="s6" d="m209.9 259.1v8.9h-8.9v-4.5h4.4v-8.9h4.5z"></path>
					<path id="Path_139318" class="s6" d="m187.7 259.1v-4.5h4.4v8.9h-4.4z"></path>
					<path id="Rectangle_152471" class="s6" d="m165.5 263.5h4.4v4.5h-4.4z"></path>
					<path id="Rectangle_152472" class="s6" d="m156.6 263.5h4.4v4.5h-4.4z"></path>
					<path id="Rectangle_152473" class="s6" d="m152.1 268h4.5v4.4h-4.5z"></path>
					<path id="Path_139319" class="s6" d="m174.3 276.8h-4.4v-8.9h4.4v-4.4h4.5v8.9h-4.5z"></path>
					<path id="Rectangle_152474" class="s6" d="m161 272.4h4.5v4.4h-4.5z"></path>
					<path id="Path_139320" class="s6" d="m183.2 276.8h-4.4v-4.4h4.4v-8.9h4.5v4.4h4.4v-4.4h4.4v8.9h17.8v4.4h4.4v-8.9h-4.4v-4.4h22.2v4.4h-13.3v4.5h13.3v4.4h-8.9v4.5h-4.4v8.8h4.4v4.5h-4.4v4.4h-8.9v-4.4h4.4v-4.5h-4.4v-4.4h4.4v-4.4h-4.4v4.4h-4.4v-8.9h-17.8v-4.4h-4.4v4.4h4.4v4.5h-8.9z"></path>
					<path id="Rectangle_152475" class="s6" d="m232.1 281.3h4.4v4.4h-4.4z"></path>
					<path id="Rectangle_152476" class="s6" d="m192.1 281.3h8.9v4.4h-8.9z"></path>
					<path id="Rectangle_152477" class="s6" d="m152.1 281.3h8.9v4.4h-8.9z"></path>
					<path id="Rectangle_152478" class="s6" d="m205.4 285.7h4.5v4.4h-4.5z"></path>
					<path id="Path_139321" fill-rule="evenodd" class="s6" d="m232.1 294.6v-4.5h4.4v-4.4h8.9v-13.3h-4.5v-8.9h22.2v13.3h-8.8v-4.4h4.4v-4.4h-4.4v4.4h-4.5v4.4h4.4v4.5h8.9v22.2h-4.4v-17.8h-8.9v8.9h4.4v4.4h-8.8v4.5h-4.5v-4.5h-4.4v-4.4zm13.3-4.5h-4.4v4.5h4.4z"></path>
					<path id="Path_139322" class="s6" d="m196.5 290.1h4.5v8.9h-4.5z"></path>
					<path id="Path_139323" class="s6" d="m165.5 294.6h-4.5v4.4h-4.4v8.9h8.9v4.4h-13.4v-22.2h13.4z"></path>
					<path id="Path_139324" class="s6" d="m227.6 294.6h4.5v4.4h4.4v4.5h-8.9v8.8h-4.4v-4.4h-4.5v-4.4h4.5v-4.5h4.4z"></path>
					<path id="Path_139325" class="s6" d="m205.4 299v-4.4h4.5v8.9h-4.5z"></path>
					<path id="Path_139326" class="s6" d="m201 307.9v8.9h-4.5v-13.3h4.5z"></path>
					<path id="Rectangle_152479" class="s6" d="m178.8 307.9h4.4v4.4h-4.4z"></path>
					<path id="Path_139327" fill-rule="evenodd" class="s6" d="m169.9 303.5h-4.4v-4.5h17.7v-4.4h-4.4v-4.5h-4.5v4.5h-4.4v-8.9h-4.4v-4.4h17.7v4.4h8.9v4.4h-4.4v8.9h8.8v4.5h-4.4v17.7h4.4v4.5h-8.8v-4.5h-4.5v4.5h-4.4v-4.5h-4.5v8.9h17.8v4.4h-26.6v-4.4h4.4v-8.9h-4.4v-8.9h4.4zm4.4 13.4h13.4v-13.4h-13.4c0 0 0 13.4 0 13.4z"></path>
					<path id="Path_139328" class="s6" d="m223.2 321.2v-4.4h4.4v22.2h-4.4v-8.9h-4.5v4.4h-4.4v-8.8h8.9z"></path>
					<path id="Path_139329" class="s6" d="m205.4 321.2v-4.4h4.5v-4.5h-4.5v-4.4h8.9v8.9h4.4v4.4h-8.8v13.3h-4.5v-4.4h-8.9v-4.4h8.9z"></path>
					<path id="Rectangle_152480" class="s6" d="m161 325.7h4.5v4.4h-4.5z"></path>
					<path id="Path_139330" class="s6" d="m156.6 330.1h-4.5v-8.9h8.9v4.5h-4.4z"></path>
					<path id="Path_139331" class="s6" d="m161 334.5h4.5v4.5h-13.4v-4.5h4.5v-4.4h4.4z"></path>
					<path id="Rectangle_152481" class="s6" d="m201 334.5h4.4v4.5h-4.4z"></path>
					<path id="Rectangle_152482" class="s6" d="m192.1 334.5h4.4v4.5h-4.4z"></path>
					<path id="Path_139332" fill-rule="evenodd" class="s6" d="m232.1 228h31v31.1h-31zm26.6 26.6v-22.2h-22.2v22.2z"></path>
					<path id="Rectangle_152483" class="s6" d="m240.9 236.9h13.3v13.3h-13.3z"></path>
					<path id="Path_139333" fill-rule="evenodd" class="s6" d="m183.2 228v31.1h-31.1v-31.1zm-26.6 26.6h22.2v-22.2h-22.2z"></path>
					<path id="Rectangle_152484" class="s6" d="m161 236.9h13.3v13.3h-13.3z"></path>
					<path id="Path_139334" fill-rule="evenodd" class="s6" d="m263.1 339h-31v-31.1h31zm-26.6-26.6v22.2h22.2v-22.2z"></path>
					<path id="Rectangle_152485" class="s6" d="m240.9 316.8h13.3v13.3h-13.3z"></path>
					<path id="Path_139336" class="s2" d="m141.9 217.8h19.1v3.8h-15.2v15.3h-3.9z"></path>
					<path id="Path_139337" class="s2" d="m141.9 330.1h3.9v15.2h15.2v3.9h-19.1z"></path>
					<path id="Path_139338" class="s2" d="m254.2 345.3h15.3v-15.2h3.9v19.1h-19.2z"></path>
					<path id="Line_535" class="s7" d="m246.2 453.8h-77.2"></path>
				</g>
			</g>
			<g id="Group_96229" clip-path="url(#cp5)">
				<g id="Group_96229">
					<path id="Rectangle_152487" class="s2" d="m240.1 427.3l-86.3-35.9 21-50.4 86.3 35.8z"></path>
				</g>
			</g>
			<g id="SCAN">
				<text id="S" style="transform: matrix(1,0,0,1,196.92,385.938)">
					<tspan x="0" y="0" class="t8">SCAN
</tspan>
				</text>
			</g>
			<g id="Group_96234" clip-path="url(#cp6)">
				<g id="Group_96234">
					<g id="Group_96233">
						<g id="Group_96232">
							<g id="Group_96231" clip-path="url(#cp7)">
								<g id="Group_96231">
								</g>
							</g>
						</g>
					</g>
				</g>
			</g>
			<g id="Group_96236" clip-path="url(#cp8)">
			</g>
			<g id="Group_96238" clip-path="url(#cp9)">
				<g id="Group_96238">
					<path id="Path_139351" class="s9" d="m110.7 267.3h0.1q0 0-0.1 0z"></path>
					<path id="Path_139392" class="s10" d="m119.9 165c-67.2-15.5-25.6-126.4 34.5-77.5 12.7 10.3 24.2 22.4 38.8 29.7 14.6 7.4 33.8 8.8 46.1-2 7.2-6.3 11-15.7 18.2-22 13.1-11.5 36.5-7.5 45.1 7.7 4.7 8.2 3.2 21.2-5.9 23.6-5.2 1.4-11-1.7-13.6-6.4-9.3-17 14.8-40.1 39.1-29.3 14.2 6.3 22.9 21.4 25.3 36.8 1.3 9.1 1.4 22.4-13.3 35.6-18.1 10.1-36.8 0.9-37.5 3.8"></path>
				</g>
			</g>
			<g id="Group_96244" clip-path="url(#cp10)">
				<g id="Group_96244">
					<path id="Path_139398" class="s11" d="m92.4 123.4h3c1.3 0 2.5-0.2 3.7-0.7 1.2-0.5 2.3-1.2 3.2-2.1 0.9-0.9 1.6-2 2.1-3.2 0.5-1.2 0.7-2.4 0.7-3.7v-3q0-0.2 0.2-0.4 0.2-0.2 0.5-0.2 0.3 0 0.5 0.2 0.2 0.2 0.2 0.4v3c0 1.3 0.3 2.5 0.8 3.7 0.5 1.2 1.2 2.3 2.1 3.2 0.9 0.9 2 1.6 3.1 2.1 1.2 0.5 2.5 0.7 3.8 0.7h2.9q0.3 0.1 0.5 0.3 0.2 0.2 0.2 0.4 0 0.3-0.2 0.5-0.2 0.2-0.5 0.2h-2.9c-1.3 0-2.6 0.3-3.8 0.8-1.1 0.5-2.2 1.2-3.1 2.1-0.9 0.9-1.6 2-2.1 3.1-0.5 1.2-0.8 2.5-0.8 3.8v2.9q0 0.3-0.2 0.5-0.2 0.2-0.5 0.2-0.3 0-0.5-0.2-0.2-0.2-0.2-0.5v-2.9c0-1.3-0.2-2.6-0.7-3.8-0.5-1.1-1.2-2.2-2.1-3.1-0.9-0.9-2-1.6-3.2-2.1-1.2-0.5-2.4-0.8-3.7-0.8h-3q-0.2 0-0.4-0.2-0.2-0.2-0.2-0.5 0-0.2 0.2-0.5 0.2-0.1 0.4-0.2z"></path>
					<path id="Path_139399" class="s1" d="m356.4 108.4h2.9c1.3 0 2.6-0.3 3.7-0.7 1.2-0.5 2.3-1.3 3.2-2.2 0.9-0.9 1.6-1.9 2.1-3.1 0.5-1.2 0.8-2.5 0.8-3.7v-3q0-0.3 0.2-0.5 0.2-0.2 0.5-0.2 0.2 0 0.4 0.2 0.2 0.2 0.2 0.5v3c0 1.2 0.3 2.5 0.8 3.7 0.5 1.2 1.2 2.2 2.1 3.1 0.9 0.9 2 1.7 3.2 2.2 1.1 0.4 2.4 0.7 3.7 0.7h2.9q0.3 0 0.5 0.2 0.2 0.2 0.2 0.5 0 0.3-0.2 0.5-0.2 0.2-0.5 0.2h-2.9c-1.3 0-2.6 0.2-3.7 0.7-1.2 0.5-2.3 1.2-3.2 2.1-0.9 0.9-1.6 2-2.1 3.2-0.5 1.2-0.8 2.4-0.8 3.7v3q0 0.3-0.2 0.5-0.2 0.2-0.5 0.2-0.2 0-0.4-0.2-0.2-0.2-0.2-0.5v-3c0-1.3-0.3-2.5-0.8-3.7-0.5-1.2-1.2-2.3-2.1-3.2-0.9-0.9-2-1.6-3.2-2.1-1.1-0.5-2.4-0.7-3.7-0.7h-2.9q-0.3 0-0.5-0.2-0.2-0.2-0.2-0.5 0-0.3 0.2-0.5 0.2-0.2 0.5-0.2z"></path>
					<path id="Path_139400" class="s12" d="m37.5 116.5h1.8q1.1 0 2.2-0.5 1-0.4 1.9-1.2 0.8-0.8 1.2-1.9 0.5-1 0.5-2.2v-1.7q0-0.2 0.1-0.3 0.1-0.1 0.3-0.1 0.1 0 0.3 0.1 0.1 0.1 0.1 0.3v1.7q0 1.2 0.4 2.2 0.5 1.1 1.3 1.9 0.8 0.8 1.8 1.2 1.1 0.5 2.2 0.5h1.8q0.2 0 0.3 0.1 0.1 0.1 0.1 0.3 0 0.2-0.1 0.3-0.1 0.1-0.3 0.1h-1.8q-1.1 0-2.2 0.4-1 0.5-1.8 1.3-0.8 0.8-1.3 1.9-0.4 1-0.4 2.2v1.7q0 0.2-0.1 0.3-0.2 0.1-0.3 0.1-0.2 0-0.3-0.1-0.1-0.1-0.1-0.3v-1.7q0-1.2-0.5-2.2-0.4-1.1-1.2-1.9-0.9-0.8-1.9-1.3-1.1-0.4-2.2-0.4h-1.8q-0.1 0-0.3-0.1-0.1-0.1-0.1-0.3 0-0.2 0.1-0.3 0.2-0.1 0.3-0.1z"></path>
					<path id="Path_139401" class="s11" d="m130.3 104.5h1.5q1 0 1.9-0.3 0.9-0.4 1.6-1.1 0.6-0.7 1-1.6 0.4-0.9 0.4-1.8v-1.5q0-0.2 0.1-0.2 0.1-0.1 0.2-0.1 0.2 0 0.3 0.1 0.1 0 0.1 0.2v1.5q0 0.9 0.3 1.8 0.4 0.9 1.1 1.6 0.7 0.7 1.6 1.1 0.9 0.3 1.8 0.3h1.5q0.2 0 0.3 0.1 0.1 0.1 0.1 0.3 0 0.1-0.1 0.2-0.1 0.1-0.3 0.1h-1.5q-0.9 0-1.8 0.4-0.9 0.4-1.6 1.1-0.7 0.6-1.1 1.5-0.3 0.9-0.3 1.9v1.5q0 0.1-0.1 0.2-0.1 0.1-0.3 0.1-0.1 0-0.2-0.1-0.1-0.1-0.1-0.2v-1.5q0-1-0.4-1.9-0.4-0.9-1-1.5-0.7-0.7-1.6-1.1-0.9-0.4-1.9-0.4h-1.5q-0.1 0-0.2-0.1-0.1-0.1-0.1-0.2 0-0.2 0.1-0.3 0.1-0.1 0.2-0.1z"></path>
					<path id="Path_139402" class="s11" d="m312.1 146.9h1.4q1-0.1 1.9-0.4 0.9-0.4 1.6-1.1 0.7-0.7 1-1.6 0.4-0.9 0.4-1.8v-1.5q0-0.1 0.1-0.2 0.1-0.1 0.2-0.1 0.2 0 0.3 0.1 0.1 0.1 0.1 0.2v1.5q0 0.9 0.4 1.8 0.3 0.9 1 1.6 0.7 0.7 1.6 1.1 0.9 0.4 1.9 0.4h1.4q0.2-0.1 0.3 0 0.1 0.2 0.1 0.3 0 0.1-0.1 0.2-0.1 0.1-0.3 0.1h-1.4q-1 0-1.9 0.4-0.9 0.4-1.6 1.1-0.7 0.7-1 1.6-0.4 0.8-0.4 1.8v1.5q0 0.1-0.1 0.2-0.1 0.1-0.3 0.1-0.1 0-0.2-0.1-0.1-0.1-0.1-0.2v-1.5q0-1-0.4-1.9-0.3-0.8-1-1.5-0.7-0.7-1.6-1.1-0.9-0.4-1.9-0.4h-1.5q-0.1 0-0.2-0.1-0.1-0.1-0.1-0.2 0-0.1 0.1-0.2 0.1-0.1 0.2-0.1z"></path>
					<path id="Path_139403" class="s13" d="m396.7 158.3q0.2-0.4 0.5-0.7 0.4-0.3 0.8-0.5 0.4-0.2 0.8-0.2c0.9 0 1.8 0.6 2.1 1.4 0.4 0.9 0.2 1.8-0.5 2.5-0.6 0.6-1.6 0.8-2.4 0.5-0.9-0.4-1.4-1.2-1.4-2.1q0-0.5 0.1-0.9z"></path>
					<path id="Path_139404" class="s13" d="m396.7 169.7q0.2-0.4 0.5-0.7 0.4-0.3 0.8-0.5 0.4-0.2 0.8-0.2c0.9 0 1.8 0.6 2.1 1.4 0.4 0.9 0.2 1.8-0.5 2.5-0.6 0.6-1.6 0.8-2.4 0.5-0.9-0.4-1.4-1.2-1.4-2.1q0-0.5 0.1-0.9z"></path>
					<path id="Path_139405" class="s13" d="m396.7 181.1q0.2-0.4 0.5-0.7 0.4-0.3 0.8-0.5 0.4-0.2 0.8-0.2c0.9 0 1.8 0.6 2.1 1.4 0.4 0.9 0.2 1.8-0.5 2.5-0.6 0.6-1.6 0.8-2.4 0.5-0.9-0.4-1.4-1.2-1.4-2.1q0-0.5 0.1-0.9z"></path>
					<path id="Path_139406" class="s13" d="m396.7 192.5q0.2-0.4 0.5-0.7 0.4-0.4 0.8-0.5 0.4-0.2 0.8-0.2c0.9 0 1.8 0.6 2.1 1.4 0.4 0.8 0.2 1.8-0.5 2.5-0.6 0.6-1.6 0.8-2.4 0.4-0.9-0.3-1.4-1.1-1.4-2q0-0.5 0.1-0.9z"></path>
					<path id="Path_139407" class="s13" d="m396.7 203.9q0.2-0.4 0.5-0.7 0.4-0.4 0.8-0.5 0.4-0.2 0.8-0.2c0.9 0 1.8 0.5 2.1 1.4 0.4 0.8 0.2 1.8-0.5 2.4-0.6 0.7-1.6 0.9-2.4 0.5-0.9-0.3-1.4-1.1-1.4-2.1q0-0.4 0.1-0.8z"></path>
					<path id="Path_139408" class="s13" d="m396.7 215.3q0.2-0.4 0.5-0.8 0.4-0.3 0.8-0.5 0.4-0.1 0.8-0.1c0.9 0 1.8 0.5 2.1 1.4 0.4 0.8 0.2 1.8-0.5 2.4-0.6 0.7-1.6 0.9-2.4 0.5-0.9-0.3-1.4-1.1-1.4-2.1q0-0.4 0.1-0.8z"></path>
					<path id="Path_139409" class="s13" d="m396.7 226.7q0.2-0.5 0.5-0.8 0.4-0.3 0.8-0.5 0.4-0.1 0.8-0.1c0.9 0 1.8 0.5 2.1 1.4 0.4 0.8 0.2 1.8-0.5 2.4-0.6 0.7-1.6 0.9-2.4 0.5-0.9-0.3-1.4-1.2-1.4-2.1q0-0.4 0.1-0.8z"></path>
					<path id="Path_139410" class="s13" d="m57.3 217.5q0.2-0.4 0.5-0.7 0.4-0.3 0.8-0.5 0.4-0.2 0.8-0.2c0.9 0 1.8 0.6 2.1 1.4 0.4 0.9 0.2 1.8-0.5 2.5-0.6 0.6-1.6 0.8-2.4 0.5-0.9-0.4-1.4-1.2-1.4-2.1q0-0.5 0.1-0.9z"></path>
					<path id="Path_139411" class="s13" d="m57.3 228.9q0.2-0.4 0.5-0.7 0.4-0.3 0.8-0.5 0.4-0.2 0.8-0.2c0.9 0 1.8 0.6 2.1 1.4 0.4 0.9 0.2 1.8-0.5 2.5-0.6 0.6-1.6 0.8-2.4 0.5-0.9-0.4-1.4-1.2-1.4-2.1q0-0.5 0.1-0.9z"></path>
					<path id="Path_139412" class="s13" d="m57.3 240.3q0.2-0.4 0.5-0.7 0.4-0.3 0.8-0.5 0.4-0.2 0.8-0.2c0.9 0 1.8 0.6 2.1 1.4 0.4 0.9 0.2 1.8-0.5 2.5-0.6 0.6-1.6 0.8-2.4 0.5-0.9-0.4-1.4-1.2-1.4-2.1q0-0.5 0.1-0.9z"></path>
					<path id="Path_139413" class="s13" d="m57.3 251.7q0.2-0.4 0.5-0.7 0.4-0.4 0.8-0.5 0.4-0.2 0.8-0.2c0.9 0 1.8 0.6 2.1 1.4 0.4 0.8 0.2 1.8-0.5 2.5-0.6 0.6-1.6 0.8-2.4 0.4-0.9-0.3-1.4-1.1-1.4-2q0-0.5 0.1-0.9z"></path>
					<path id="Path_139414" class="s13" d="m57.3 263.1q0.2-0.4 0.5-0.7 0.4-0.4 0.8-0.5 0.4-0.2 0.8-0.2c0.9 0 1.8 0.5 2.1 1.4 0.4 0.8 0.2 1.8-0.5 2.4-0.6 0.7-1.6 0.9-2.4 0.5-0.9-0.3-1.4-1.1-1.4-2.1q0-0.4 0.1-0.8z"></path>
					<path id="Path_139415" class="s13" d="m57.3 274.5q0.2-0.4 0.5-0.8 0.4-0.3 0.8-0.5 0.4-0.1 0.8-0.1c0.9 0 1.8 0.5 2.1 1.4 0.4 0.8 0.2 1.8-0.5 2.4-0.6 0.7-1.6 0.9-2.4 0.5-0.9-0.3-1.4-1.2-1.4-2.1q0-0.4 0.1-0.8z"></path>
					<path id="Path_139416" class="s13" d="m57.3 285.9q0.2-0.5 0.5-0.8 0.4-0.3 0.8-0.5 0.4-0.1 0.8-0.1c0.9 0 1.8 0.5 2.1 1.4 0.4 0.8 0.2 1.8-0.5 2.4-0.6 0.7-1.6 0.9-2.4 0.5-0.9-0.3-1.4-1.2-1.4-2.1q0-0.4 0.1-0.8z"></path>
				</g>
			</g>
			<path id="Path_139529" class="s14" d="m415.3 475.8h-415.3v-425.9h415.3z"></path>
			<g id="Group_96173" clip-path="url(#cp11)">
				<g id="Group_96173">
					<path id="Path_139177" class="s15" d="m157.7 96.8c-2.9 12.3-23.9 19.2-23.9 19.2 0 0-20.9-6.9-23.8-19.2-3.2-13.6-2.6-36.5-2.6-36.5 0 0 16.4-0.2 26.4-13.8 11.4 14.1 26.5 13.8 26.5 13.8 0 0 0.6 23-2.6 36.5z"></path>
					<path id="Path_139178" class="s16" d="m154.5 94.7c-2.5 10.7-20.7 16.7-20.7 16.7 0 0-18.1-6-20.6-16.7-2.8-11.7-2.3-31.6-2.3-31.6 0 0 14.2-0.2 22.9-12 9.9 12.2 23 12 23 12 0 0 0.5 19.9-2.3 31.6z"></path>
					<path id="Path_139179" class="s17" d="m133.8 111.4c0 0-18.1-6-20.6-16.7-2.8-11.7-2.3-31.6-2.3-31.6 0 0 14.2-0.2 22.9-12z"></path>
					<path id="Path_139180" class="s18" d="m146.5 69.5l-15 21.8-8.5-7.2"></path>
				</g>
			</g>
			<path id="Path_139417" class="s2" d="m269.5 221.6h-15.3v-3.8h19.2v19.1h-3.9z"></path>
		</g>
		<g id="Group_96264">
			<g id="Group_96263" clip-path="url(#cp12)">
				<g id="Group_96263">
					<path id="Path_139649" class="s19" d="m327.2 280.1c3.4-10.8 12.2-37.6 14.5-41.5 1.7-2.9 5-5.8 7.3-7.6 1.6-1.2 2.8-2 2.8-2v11c0 0 0 44-7.4 60.9q-0.2 0.3-0.3 0.6-0.1 0.3-0.3 0.6-0.1 0.3-0.3 0.6-0.1 0.3-0.3 0.5c-6.2 10.7-12.6-3.8-15.6-12.7-1.2-3.4-1.9-5.9-1.9-5.9 0 0 0.6-1.7 1.5-4.5z"></path>
					<path id="Path_139650" class="s20" d="m334.1 236.7c1.8-8.6 15.3-14.1 15.7-14.2l-4 47.9-7.6-1.2-9.6-1.5c0 0 3.7-22.3 5.5-31z"></path>
					<path id="Path_139651" class="s21" d="m336.6 236.3c0.7-6.8 12.8-13.6 13.2-13.8l-4 47.9-7.6-1.2 1.7-5.9c0 0-3.9-20.1-3.3-27z"></path>
					<path id="Path_139652" class="s22" d="m346.8 273.4l-20.5-2.5 1.1-5.9 16.2 3.9z"></path>
					<path id="Path_139653" class="s23" d="m370.3 251.4l25.6 8.2 1.1 0.4c0 0 16.5 35.7 8.8 47.2-7.8 11.6-27.2 13-27.2 13l-3.7-8.4-12.5-28.1z"></path>
					<path id="Path_139654" class="s24" d="m375.8 311.5q0.5-0.1 1-0.2 0.4-0.1 0.9-0.2 0.5-0.1 0.9-0.2c27-5.6 20.1-40.5 17.3-51.3l1.1 0.4c0 0 16.5 35.7 8.8 47.2-7.8 11.6-27.2 13-27.2 13l-3.7-8.4q0.5-0.1 0.9-0.3z"></path>
					<path id="Path_139655" class="s25" d="m357.6 470.1c0 0-0.7 4.5-1.2 5-0.5 0.6-25.9 0-25.9 0l0.1-3.9 15.1-5.1z"></path>
					<path id="Path_139656" class="s26" d="m351.1 457.6l6.9 0.3c0 0 0.3 12.2-0.6 13.4-1.3 1.8-26.8-0.1-26.8-0.1-1.1 0 20.5-13.6 20.5-13.6z"></path>
					<path id="Path_139657" class="s25" d="m388.5 470.6q-0.1-0.5-0.1-1 0.1-0.5 0.1-1 0.1-0.5 0.2-1c0.6-4.8 2.4-11.6 2.4-11.6l7.8-0.3c0 0 2 4.5 3.6 8.8 0.5 1.4 0.9 2.8 1.3 3.9q0.1 0.4 0.2 0.8 0.1 0.4 0.2 0.8 0.1 0.4 0.1 0.8 0 0.4 0 0.9c-0.4 2-4.3 5.4-6.2 7q-0.3 0.2-0.5 0.3-0.3 0.1-0.6 0.1-0.2 0-0.5 0-0.3-0.1-0.5-0.3c-2.2-1.4-6.9-4.8-7.5-7.1q0-0.6 0-1.1z"></path>
					<path id="Path_139658" class="s26" d="m391.1 456l7.8-0.3c0 0 2 4.5 3.6 8.8 0.5 1.4 0.9 2.8 1.3 3.9-1.2 2-4.2 4.6-5.7 5.9q-0.3 0.2-0.5 0.3-0.3 0.1-0.6 0.1-0.2 0-0.5-0.1-0.3 0-0.5-0.2c-2.1-1.4-6.4-4.5-7.3-6.8 0.6-4.8 2.4-11.6 2.4-11.6z"></path>
					<path id="Path_139659" class="s22" d="m399.1 463.5c-0.1 0.5-0.6 0.8-1.1 0.9-1.8 0.7-3.9 0.9-5.5-0.2q0 0-0.1 0 0-0.1 0-0.1-0.1 0-0.1-0.1 0 0-0.1-0.1 0-0.1 0-0.2 0 0 0-0.1 0-0.1 0.1-0.2 0-0.1 0.1-0.2 0-0.1 0.1-0.1 0.1-0.1 0.2-0.1 0.1-0.1 0.2-0.1 0-0.1 0.1-0.1c0.9-0.3 6.5-1.6 6.1 0.7z"></path>
					<path id="Path_139660" class="s22" d="m399.7 467.8c-0.1 0.5-0.7 0.8-1.1 0.9-1.8 0.7-3.9 0.9-5.5-0.2q0 0-0.1 0 0-0.1-0.1-0.1 0 0 0-0.1-0.1 0-0.1-0.1 0-0.1 0-0.1 0-0.1 0-0.2 0-0.1 0-0.2 0.1-0.1 0.2-0.2 0-0.1 0.1-0.1 0.1-0.1 0.2-0.1 0-0.1 0.1-0.1 0.1-0.1 0.2-0.1c0.9-0.3 6.5-1.6 6.1 0.7z"></path>
					<path id="Path_139661" class="s22" d="m345.7 465.4q-0.2 0-0.3 0-0.2 0-0.3-0.1-0.2 0-0.3-0.1-0.2-0.1-0.3-0.2-0.5-0.4-0.9-0.8-0.4-0.5-0.7-1-0.3-0.5-0.5-1.1-0.2-0.6-0.2-1.2 0-0.1 0-0.1 0 0 0-0.1 0 0 0-0.1 0 0 0-0.1 0.1 0 0.1-0.1 0.1 0 0.2-0.1 0 0 0.1 0 0.1 0 0.2 0 0.1 0.1 0.1 0.1 0.1 0 0.2 0.1 0.1 0 0.1 0 0.1 0.1 0.2 0.2c0.6 0.4 4.1 4 2.3 4.7z"></path>
					<path id="Path_139662" class="s22" d="m343 467.7q-0.2 0-0.3 0-0.2 0-0.3-0.1-0.2 0-0.3-0.1-0.2-0.1-0.3-0.2-0.5-0.4-0.9-0.8-0.4-0.5-0.7-1-0.3-0.5-0.5-1.1-0.2-0.6-0.3-1.2 0-0.1 0-0.1 0-0.1 0.1-0.1 0 0 0-0.1 0 0 0-0.1 0.1 0 0.1-0.1 0.1 0 0.2-0.1 0 0 0.1 0 0.1 0 0.2 0 0.1 0 0.1 0.1 0.1 0 0.2 0 0.1 0.1 0.1 0.1 0.1 0.1 0.2 0.1c0.6 0.5 4.1 4.1 2.3 4.8z"></path>
					<path id="Path_139663" class="s27" d="m334.3 325.8c0.8-5.9 2.2-14 3.7-21.3 0.7-3.4 1.3-6.7 1.9-9.4q0.2-0.7 0.3-1.5 0.2-0.7 0.3-1.4 0.2-0.9 0.4-1.6c0.3-1.7 0.6-2.7 0.6-2.7h35.7q0 0 0.4 0.8 0.1 0.1 0.1 0.2 0.1 0.2 0.3 0.4c0.3 0.8 0.9 1.8 1.4 3.1q0.1 0.3 0.3 0.5 0.4 0.9 0.8 2 0.1 0.2 0.2 0.5 0.5 1.1 1 2.3 0.4 0.9 0.7 1.8 0.4 0.9 0.7 1.9 0.2 0.4 0.3 0.9l0.1 0.1q0 0.1 0.1 0.3 0.1 0.3 0.2 0.6 0.1 0.3 0.2 0.6 0.6 1.7 1.2 3.5 0.1 0.3 0.2 0.7 0.1 0.4 0.3 0.9 0.2 0.8 0.4 1.6c0.6 2.1 1.1 4.3 1.5 6.4q0 0.4 0.1 0.8 0.1 0.4 0.2 0.9 0 0.3 0.1 0.7 0 0.3 0.1 0.6 0.2 1.7 0.3 3.4 0.1 0.4 0.1 0.8c0.4 7.5 0 56.7 0 56.7 0 0 9.5 18.4 10.1 25.8 0.3 3.9 2.5 51.3 2.5 51.3h-11.9c0 0-11.5-59-14.5-65.5-3-6.4-13.1-61.8-13.1-61.8l-3.2 0.2c0 0-0.7 50.5-1.1 53.1 0 0 4.2 12.5 5.5 19.1 0.9 4.8-3.9 57.3-3.9 57.3h-12.1c0 0-4.2-66.6-5.8-71.2-1.6-4.7-8.3-50.3-6.7-63.4z"></path>
					<path id="Path_139664" class="s28" d="m373.8 287.9h0.3 3.1q0.1 0 0.4 0.8 0.1 0.1 0.1 0.2 0.1 0.2 0.3 0.4c0.3 0.8 0.9 1.8 1.4 3.1q0.1 0.3 0.3 0.5 0.4 0.9 0.8 2 0.1 0.2 0.2 0.4 0.5 1.2 1 2.4 0.4 0.8 0.7 1.8 0.4 0.9 0.7 1.9 0.2 0.4 0.4 0.9 0 0 0 0.1 0 0.1 0.1 0.3 0.1 0.3 0.2 0.6 0.1 0.3 0.2 0.6 0.6 1.7 1.2 3.5 0.1 0.3 0.2 0.7 0.1 0.4 0.3 0.9 0.2 0.8 0.4 1.6c0.6 2.1 1.1 4.3 1.5 6.4q0.1 0.4 0.1 0.8 0.1 0.4 0.2 0.9 0 0.3 0.1 0.7 0 0.3 0.1 0.6 0.2 1.7 0.3 3.4 0.1 0.4 0.1 0.8c0.4 7.5 0 56.7 0 56.7 0 0 9.5 18.4 10.1 25.8 0.3 3.8 2.5 51.3 2.5 51.3h-1.9c-0.8-12.9-3.1-51.3-3.9-52.2-1.1-1-11.7-26.8-11.7-26.8 0 0 2.8-57.4 0-62.3-1.2-2.1-3.5-8-5.7-13.9q-0.4-1-0.8-2.1-0.4-1.1-0.8-2.3-0.8-2.1-1.4-3.9-0.7-1.8-1.2-3.2c-0.6-2-1.1-3.2-1.1-3.2z"></path>
					<path id="Path_139665" class="s28" d="m339.9 295.1q0.2-0.7 0.3-1.5 0.2-0.7 0.3-1.4 0.2-0.9 0.4-1.6c0.3-1.7 0.6-2.7 0.6-2.7h35.7q0.1 0 0.4 0.8 0.1 0.1 0.1 0.2 0.2 0.2 0.3 0.4c0.4 0.8 0.9 1.8 1.5 3.1q0 0.3 0.2 0.5 0 0.1 0.1 0.3 0.4 0.8 0.7 1.7 0.1 0.1 0.2 0.3 0 0.1 0 0.2 0.5 1.1 1 2.3 0.1 0.2 0.2 0.4 0.2 0.7 0.5 1.4 0.1 0.2 0.2 0.3 0.2 0.8 0.5 1.6-0.5 0.1-1.1 0.3-1 0.3-2.1 0.6-1 0.2-2 0.5c-11.2 2.8-29.6 6.3-39.9 1.7 0.7-3.4 1.3-6.7 1.9-9.4z"></path>
					<path id="Path_139666" class="s28" d="m353.7 382.7l0.4-47.3 4.3-4.5c0 0-0.7 50.5-1.1 53.1 0 0 4.2 12.5 5.5 19.1 0.9 4.8-3.9 57.3-3.9 57.3h-2.7l3.7-53.9z"></path>
					<path id="Path_139667" class="s29" d="m381.6 391.2q0 0.1-0.1 0.2 0 0.1-0.1 0.2 0 0-0.1 0.1 0 0-0.1 0.1-0.1 0-0.2 0-0.1 0.1-0.1 0.1-0.1 0-0.2-0.1-0.1 0-0.2 0-0.4-0.1-0.8-0.3-0.4-0.2-0.7-0.5-0.4-0.3-0.7-0.6-0.3-0.3-0.5-0.6c-1.6-2-4.9-8.8-0.2-8.9 4.6-0.1 5.2 7.3 4 10.3z"></path>
					<path id="Path_139668" class="s29" d="m350.3 393.1q-0.1 0.4-0.3 0.8-0.1 0.4-0.4 0.7-0.2 0.3-0.6 0.5-0.3 0.3-0.6 0.5-0.3 0-0.7 0.1-0.3 0-0.6-0.1-0.3-0.1-0.6-0.2-0.3-0.2-0.6-0.4-0.3-0.2-0.5-0.4-0.2-0.2-0.4-0.5-0.2-0.3-0.4-0.5-0.2-0.3-0.3-0.6-0.4-0.5-0.6-1.1-0.3-0.5-0.5-1.1-0.3-0.5-0.4-1.1-0.2-0.6-0.3-1.2c-0.5-3.2 2-7.5 5.7-5.8 3.8 1.6 3.2 7.4 2.1 10.4z"></path>
					<path id="Path_139669" class="s29" d="m374.5 287.9q0.2 0.4 0.4 0.8 0.2 0.4 0.5 0.8 0.2 0.4 0.5 0.8 0.3 0.3 0.7 0.6 0.3 0.4 0.7 0.7 0.4 0.3 0.8 0.6 0.4 0.3 0.8 0.5 0.5 0.3 0.9 0.5 0.4 0.8 0.7 1.7 0.1 0.1 0.2 0.3-0.8-0.3-1.5-0.7-0.7-0.4-1.4-0.9-0.7-0.4-1.3-0.9-0.7-0.6-1.2-1.1-0.1-0.1-0.2-0.2-0.1-0.1-0.2-0.2-0.1-0.1-0.2-0.2 0-0.1-0.1-0.2-0.3-0.3-0.5-0.7-0.2-0.3-0.4-0.7-0.2-0.4-0.4-0.7-0.2-0.4-0.3-0.8z"></path>
					<path id="Path_139670" class="s29" d="m371.6 287.9q0.1 0.1 0.1 0.2 0.2 0.9 0.6 1.7 0.3 0.8 0.8 1.6 0.4 0.7 1 1.4 0.5 0.7 1.2 1.3 0.3 0.3 0.7 0.6 0.6 0.6 1.3 1 0.7 0.5 1.4 0.9 0.7 0.4 1.5 0.8 0.7 0.3 1.5 0.6l0.2 0.1q0.2 0.7 0.5 1.4 0.1 0.2 0.1 0.3-1.4-0.5-2.9-1.2-0.3-0.2-0.7-0.3-0.3-0.2-0.7-0.4-0.3-0.2-0.7-0.4-0.3-0.2-0.7-0.4-0.4-0.3-0.7-0.6-0.4-0.2-0.8-0.5-0.3-0.3-0.7-0.7-0.3-0.3-0.7-0.6-0.6-0.7-1.1-1.4-0.6-0.7-1-1.5-0.5-0.8-0.8-1.6-0.4-0.8-0.6-1.7-0.1-0.3-0.2-0.6z"></path>
					<path id="Path_139671" class="s29" d="m340.9 290.6q0.4-0.2 0.9-0.5 0.4-0.3 0.9-0.7 0.4-0.3 0.7-0.7 0.4-0.4 0.7-0.8h1.6q-0.3 0.4-0.6 0.8-0.3 0.4-0.6 0.8-0.3 0.3-0.7 0.7-0.3 0.3-0.7 0.6-0.3 0.3-0.6 0.5-0.3 0.2-0.6 0.4-0.3 0.1-0.7 0.3-0.3 0.1-0.7 0.2 0.2-0.9 0.4-1.6z"></path>
					<path id="Path_139672" class="s29" d="m340.2 293.6q1.1-0.3 2.2-0.8 1-0.6 1.9-1.3 0.9-0.7 1.6-1.7 0.7-0.9 1.3-1.9h1.5q-0.6 1.3-1.5 2.5-0.9 1.2-2 2.2-1.2 0.9-2.5 1.6-1.4 0.6-2.8 0.9 0.2-0.8 0.3-1.5z"></path>
					<path id="Path_139673" class="s20" d="m342.6 256.7c-5.1-10-5.6-23.8 3-31.1q0.5-0.4 1-0.8 0.5-0.4 1.1-0.8 0.5-0.4 1-0.8 0.6-0.4 1.1-0.7 0.6-0.4 1.2-0.8 0.7-0.4 1.3-0.7 0.7-0.4 1.3-0.7 0.7-0.2 1.4-0.5 0.1-0.1 0.3-0.1 0.2-0.1 0.4-0.1 0.1-0.1 0.3-0.1 0.2-0.1 0.4-0.1 0.2-0.1 0.5-0.2 0.2 0 0.5-0.1 0.2 0 0.5 0 0.3 0 0.5 0h0.1q0 0 0 0 0 0 0 0 0.1 0 0.1 0 0 0 0 0 0 0 0 0 0 0 0 0 0 0 0.1 0 0 0 0 0h11.5c0 0 1.5 0.3 3.4 0.9q0.7 0.2 1.4 0.5h0.1q0.9 0.4 1.8 0.8 0.9 0.5 1.8 1 0.9 0.4 1.7 0.9 0.9 0.6 1.7 1.1 0 0 0.1 0 0 0 0 0 0 0 0 0 0 0 0 0 0.1 0.1 0.2 0.2 0 0 0 0 0 0 0.1 0 0 0 0 0 0 0 0 0l0.6 0.5h0.1q0.4 0.2 0.7 0.5 0.4 0.3 0.8 0.6 0.3 0.3 0.6 0.6 0.4 0.4 0.7 0.8 0.2 0.5 0.3 1.1 0.2 0.5 0.4 1.1 0.1 0.5 0.2 1.1 0.1 0.6 0.2 1.1 0.3 1.7 0.4 3.4 0.1 1.7 0.1 3.4 0 1.7-0.2 3.4-0.2 1.7-0.5 3.4c-0.6 3.3-1.4 7-2.2 10.8-3 14.2-6.7 29.8-6.6 33.3 0 0-22.5 10.2-36.6-1.7 0 0 2.6-28.3 1.1-31.2z"></path>
					<path id="Path_139674" class="s21" d="m345.7 254.8c0.7-0.2 1.8-0.6 3.1-1q0.5-0.2 1.1-0.3 0.6-0.1 1.2-0.2 0.6-0.2 1.2-0.3 0.6 0 1.2-0.1 0.8-0.1 1.5-0.1 0.8 0 1.6 0.1 0.7 0 1.5 0.1 0.7 0.2 1.5 0.4c1 0.2 2 0.6 2.9 0.9q1.3 0.4 2.5 0.8 0.6 0.1 1.1 0.3 0.6 0.1 1.2 0.2 0.5 0.1 1.1 0.2 0.5 0.1 1.1 0.2 0.4 0.1 0.8 0.1 0.3 0 0.7 0 0.4 0 0.8-0.1 0.3-0.1 0.7-0.2 0.1 0 0.2 0 0.1-0.1 0.2-0.1 0.1-0.1 0.1-0.2 0.1 0 0.2-0.1l0.2-0.2q0 0-0.1 0.3-0.1 0.1-0.1 0.2-0.1 0.1-0.2 0.1-0.1 0.1-0.2 0.2 0 0.1-0.1 0.2-0.2 0.1-0.3 0.2-0.2 0.1-0.4 0.1-0.1 0.1-0.3 0.2-0.2 0.1-0.3 0.1-0.3 0.1-0.5 0.1-0.2 0.1-0.5 0.1-0.2 0.1-0.4 0.1-0.3 0.1-0.5 0.1-0.6 0-1.2 0-0.6 0-1.2 0-0.7 0-1.3 0-0.6-0.1-1.2-0.2-0.3 0-0.7-0.1-0.3-0.1-0.7-0.1-0.3-0.1-0.7-0.2-0.4-0.1-0.7-0.2c-0.9-0.2-1.9-0.5-2.8-0.8q-1.3-0.3-2.5-0.4-1.2-0.2-2.5-0.3-1.3-0.1-2.5-0.1-1.3 0-2.5 0.2c-1.4 0.1-2.5 0.1-3.2 0.2h-1.2c0 0 0.4-0.1 1.1-0.4z"></path>
					<path id="Path_139675" class="s30" d="m404 284.3l-5.2-9.2 11.9-3.3 3-0.9c3.6 7.6 5.1 13.3 4.8 15.1-0.8 5.3-29.6 24.3-29.6 24.3l-1.8-2-4-4.4z"></path>
					<path id="Path_139676" class="s19" d="m414.6 286.1c0.9-1.3-2.2-9.8-3.9-14.3l3-0.9c3.6 7.6 5.1 13.3 4.8 15.1-0.8 5.3-29.6 24.3-29.6 24.3l-1.8-2c0 0 26.4-20.5 27.5-22.2z"></path>
					<path id="Path_139677" class="s20" d="m382.2 224.3q0.1 0.1 0.2 0.2 0.1 0 0.1 0 0.2 0.2 0.6 0.5c2.8 1.8 10.2 6.8 11.5 8.4 1.1 1.2 12.7 22 20 37.3l-2 0.5-15.7 4.4-11.1-17.4-1.1-1.9-2.5-4.3-0.1-23.2v-4.5c0 0 0.1 0 0.1 0z"></path>
					<path id="Path_139678" class="s31" d="m373.6 220q0.7 0.2 1.4 0.5h0.1q0.9 0.4 1.8 0.8 0.9 0.5 1.8 1 0.9 0.4 1.7 0.9 0.9 0.6 1.7 1.1 0 0 0 0 0 0 0.1 0 0 0 0 0 0 0 0 0 0 0 0 0 0.1 0.1 0.2 0.2 0 0 0.1 0 0.2 0.2 0.6 0.5h0.1c2.7 1.8 10.1 6.8 11.4 8.4 1.1 1.2 12.7 22 20 37.3l-2 0.5c-4.6-7.9-20.2-35.2-20.8-36q-0.5-0.5-1.1-0.9-0.6-0.4-1.2-0.8-0.6-0.4-1.2-0.8-0.6-0.4-1.2-0.8c-1.5-0.9-3.2-2-5-3.1-5.1-3.3-10.3-6.5-10.3-6.5z"></path>
					<path id="Path_139679" class="s22" d="m414.6 266.9l1.9 5.7-18.7 5.4-2.8-3.5z"></path>
					<path id="Path_139680" class="s30" d="m383.1 303.9l4 4.4 1.8 2q-0.2 0.5-0.3 1-0.2 0.5-0.4 1-0.2 0.6-0.4 1.1-0.2 0.5-0.5 1 0 0 0 0.1 0 0-0.1 0 0 0.1 0 0.1-0.1 0.1-0.1 0.1-0.2 0.2-0.4 0.3-0.3 0.2-0.5 0.3-0.3 0.1-0.5 0.2-0.3 0.1-0.6 0.1c0 0 3.4 1.8 3.1 2.5-0.3 0.6-4.1 2.1-5.1 2.3-0.9 0.1-8.6-7.1-8.4-7.9 0.2-0.8 4.1-7.1 8.4-8.6z"></path>
					<path id="Path_139681" class="s32" d="m387.4 312.8q0-0.7 0-1.5-0.1-0.7-0.1-1.5-0.1-0.7-0.2-1.5l1.8 2q-0.2 0.5-0.3 1-0.2 0.5-0.4 1-0.2 0.6-0.4 1.1-0.2 0.5-0.5 1 0.1-0.8 0.1-1.6z"></path>
					<path id="Path_139682" class="s32" d="m385.1 315.6c0 0 3.4 1.8 3.1 2.5 0 0-1.2-1.2-4.5-0.6l-0.6-1.6z"></path>
					<path id="Path_139683" class="s33" d="m383 303.9c-0.2 0.2-6.9 6.3-7.1 8.2-0.1 2 7.2 8.3 7.2 8.3-0.9 0.1-8.6-7.1-8.4-7.9 0.2-0.8 4.1-7.1 8.3-8.6z"></path>
					<path id="Path_139684" class="s23" d="m385 282.1c-13.4-7.5-6.2-59.8-6.2-59.8 4.4 0.3 8.1 5.2 8.1 5.2-10.4 25.8-1.9 54.6-1.9 54.6z"></path>
					<path id="Path_139685" class="s34" d="m340.8 186.1l0.2-4.9 0.1-6.1 7.2-3.7 0.5-0.2 1.3-0.7 6.5-3.4h17.8v0.1c0.7 0.4 10.1 7.5 12.5 23.1q0.2 0.9 0.3 1.8 0.1 0.9 0.1 1.9 0.1 0.9 0.1 1.8 0.1 0.9 0.1 1.9c0 4.3-1.4 15.6-1.4 15.6 0 0-2.6 0.6-6.8 1.3-8.4 1.4-22.8 3.1-34.3 0.8q-0.6-0.1-1.3-0.2-0.6-0.2-1.2-0.3-0.6-0.2-1.2-0.4-0.7-0.2-1.3-0.4z"></path>
					<path id="Path_139686" class="s35" d="m343.3 197.1c0.8-4.9 2-9.7 2.7-14.6 0.5-3.9 0.7-8 2.8-11.3q0.9-1.4 2.1-2.4 1.2-1.1 2.7-1.9 1.4-0.7 3-1.1 1.6-0.3 3.2-0.3c3.3 0 6.7 0 9.7 1.4q0.2 0.1 0.4 0.2 1.1 0.6 2 1.2 1 0.7 1.8 1.5 0.9 0.8 1.6 1.7 0.8 0.8 1.4 1.8 0.8 1.3 1.5 2.7 0.7 1.3 1.3 2.7 0.6 1.4 1.1 2.9 0.4 1.4 0.8 2.9 0.5 1.9 1 3.8 0.4 1.8 0.6 3.8 0.3 1.9 0.5 3.8 0.1 2 0.1 3.9 0 1.9-0.3 3.9-0.3 1.9-0.8 3.8-0.6 1.8-1.4 3.6-0.8 1.8-1.8 3.4 0 0 0 0 0 0.1 0 0.1 0 0 0 0 0 0 0 0c-8.4 1.4-22.8 3.1-34.3 0.8q-0.2-0.4-0.4-0.8-0.2-0.4-0.4-0.9-0.2-0.4-0.3-0.9-0.2-0.4-0.3-0.9c-1.3-4.8-1-9.9-0.3-14.8z"></path>
					<path id="Path_139687" class="s35" d="m338.8 200.7q0.1-0.5 0.3-1.2 0.1-0.2 0.1-0.4 0.1-0.2 0.2-0.4 0-0.2 0.1-0.4 0.1-0.2 0.2-0.4 0.1-0.3 0.2-0.5 0.2-0.2 0.3-0.5 0.2-0.2 0.4-0.4 0.1-0.2 0.3-0.4 0.2-0.2 0.4-0.4 0.2-0.2 0.4-0.4 0.3-0.1 0.5-0.3 0.2-0.1 0.5-0.3 0.2-0.1 0.4-0.2 0.2 0 0.4-0.1 0.2-0.1 0.4-0.2 0.2-0.1 0.4-0.1 0.3-0.1 0.6-0.2 0.3-0.3 0.3-0.3 0 0-0.1 0.3 0.2 0 0.4-0.1 0.4 0 0.4 0l-1 0.6q-0.2 0.5-0.5 1.2-0.2 0.5-0.5 1-0.2 0.6-0.3 1.2-0.2 0.5-0.4 1.1-0.1 0.6-0.2 1.2-0.1 0.5-0.2 1.1 0 0.6 0 1.2-0.1 0.6-0.1 1.2 0 0.6 0.1 1.2 0 1 0 1.5 0 0.6 0 0.6l-0.3-0.5q-0.2-0.5-0.5-1.5-0.1-0.2-0.2-0.5-0.1-0.3-0.1-0.6-0.1-0.3-0.1-0.5-0.1-0.3-0.1-0.6-0.1-0.4-0.1-0.7-0.1-0.4-0.1-0.8 0-0.3 0.1-0.7 0-0.3 0.1-0.7 0-0.4 0.1-0.7 0.1-0.4 0.2-0.7 0.1-0.4 0.3-0.7 0.1-0.3 0.3-0.7 0.2-0.2 0.3-0.4 0.1-0.3 0.3-0.5 0.2-0.2 0.3-0.4 0.2-0.3 0.4-0.5-0.3 0.2-0.5 0.4-0.3 0.2-0.5 0.4-0.3 0.2-0.5 0.4-0.2 0.2-0.4 0.5-0.3 0.3-0.6 0.6-0.3 0.4-0.6 0.8-0.2 0.3-0.5 0.7-0.2 0.4-0.5 0.8-0.4 0.6-0.6 0.9l-0.2 0.4q0 0 0-0.4z"></path>
					<path id="Path_139688" class="s30" d="m351 221.7q0.7-0.4 1.3-0.7 0.7-0.4 1.3-0.7 0.7-0.3 1.4-0.5 0.1-0.1 0.3-0.1 0.2-0.1 0.4-0.1 0.1-0.1 0.3-0.1 0.2-0.1 0.4-0.1 0.2-0.1 0.5-0.2 0.2 0 0.5 0 0.3-0.1 0.5-0.1 0.3 0 0.5 0h0.1q0.1 0 0.1 0 0 0 0 0 0 0 0 0 0.1 0 0.1 0 0 0 0 0 0 0 0 0 0 0 0 0 0 0 0 0 0 0 0 0h11.5q0.6 0.1 1.2 0.3 0.6 0.2 1.2 0.3 0.6 0.2 1.2 0.4 0.6 0.2 1.2 0.4c-1.7 4-7.2 14.5-15.6 11.7q-1.7-0.5-3.2-1.4-1.6-1-2.8-2.2-1.3-1.3-2.2-2.9-0.9-1.5-1.4-3.2 0.6-0.4 1.2-0.8z"></path>
					<path id="Path_139689" class="s30" d="m359.4 227.8q-0.2-1.4-0.3-2.8-0.2-1.4-0.3-2.8-0.1-1.4-0.2-2.9 0-1.3-0.2-2.7-0.2-1.4-0.5-2.7-0.3-1.4-0.7-2.7-0.4-1.3-0.9-2.6l13.2-5.2c0 0 0.2 4.4 0.4 9.1 0.1 4.2 0.3 4.9 0.3 6.6l-10.3 11.5q-0.3-1.4-0.5-2.8z"></path>
					<path id="Path_139690" class="s19" d="m369.5 203.4c0 0 0.2 4.4 0.4 9.1-3.6 3.4-8.5 7.8-10.1 7.3q-0.5-0.2-1.2-0.5 0-1.3-0.2-2.7-0.2-1.4-0.5-2.7-0.3-1.4-0.7-2.7-0.4-1.3-0.9-2.6z"></path>
					<path id="Path_139691" class="s30" d="m341.7 189.7q-0.2-1.6-0.2-3.2 0-1.6 0.1-3.2 0.2-1.6 0.5-3.2 0.4-1.6 1.2-3 0.8-1.5 1.9-2.6 1.2-1.2 2.6-2 1.5-0.8 3.1-1.1c24.1-5.6 23 14.4 22.6 17-0.1 1-1.7 12.7-2.2 15.3q0 0.3-0.2 0.5-0.1 0.2-0.2 0.4-0.2 0.3-0.3 0.4-0.2 0.2-0.4 0.4c-3.3 3.4-12.9 9.2-16.9 9.7-4.7 0.5-9.2-8.8-9.8-10.2-0.7-1.5-0.1-8.2-0.1-8.2q-0.7-2-1.1-3.9-0.4-1.5-0.6-3.1z"></path>
					<path id="Path_139693" class="s30" d="m372.6 192.5q0.1-0.1 0.1-0.2 0-0.1 0.1-0.1 0-0.1 0.1-0.2 0-0.1 0.1-0.2c0.5-0.8 1.7-2.1 3.2-1.2 2.2 1.3 2 6.7 1.1 8.3q0 0.1-0.1 0.2-0.1 0.1-0.2 0.3 0 0.1-0.1 0.2-0.1 0.1-0.2 0.2-0.6 0.8-1.3 1.4-0.7 0.6-1.6 1.1-0.8 0.4-1.7 0.7-0.9 0.3-1.8 0.4z"></path>
					<path id="Path_139694" class="s30" d="m372.6 192.5q0.1-0.1 0.1-0.2 0-0.1 0.1-0.1 0-0.1 0.1-0.2 0-0.1 0.1-0.2 0.2-0.3 0.5-0.6 0.4-0.2 0.8-0.3 0.4-0.1 0.8-0.1 0.4 0.1 0.7 0.3c2.3 1.3 2 6.7 1.2 8.3q-0.2 0.2-0.3 0.4-0.6 0.8-1.3 1.4-0.7 0.6-1.6 1.1-0.8 0.4-1.7 0.7-0.9 0.3-1.8 0.4z"></path>
					<path id="Path_139695" class="s32" d="m376.9 194.9q0.1 0.2 0.1 0.3 0 0.2 0 0.4 0 0.1-0.1 0.3 0 0.2-0.1 0.3c-0.6 1.9-2.4 3.3-4.2 4.6q0.2-0.4 0.4-0.7 0.1-0.4 0.2-0.7 0.1-0.4 0.1-0.8 0-0.3-0.1-0.7 0-0.1 0-0.3 0-0.1 0-0.2 0-0.1 0-0.3-0.1-0.1-0.1-0.2c0-1.4 3.2-4.6 3.8-2z"></path>
					<path id="Path_139696" class="s36" d="m371.8 201.2q0.1-0.1 0.3-0.2 0.1-0.1 0.2-0.2 0.1-0.1 0.1-0.2 0.1-0.1 0.2-0.2 0.1-0.1 0.1-0.2 0.1-0.2 0.2-0.4 0.1-0.1 0.1-0.3 0.1-0.2 0.1-0.4 0.1-0.1 0.1-0.3 0-0.2 0-0.5 0-0.2 0-0.4-0.1-0.2-0.1-0.4-0.1-0.2-0.2-0.4 0-0.1 0-0.1 0 0 0 0 0-0.1-0.1-0.1 0 0 0 0l-0.1-0.2q0-0.1 0-0.1v-0.1l0.1-0.2 0.1-0.1q0-0.1 0.1-0.2 0.1-0.1 0.2-0.2 0-0.1 0.1-0.2 0.1-0.1 0.2-0.2 0.1-0.1 0.1-0.2 0.1 0 0.2-0.1 0.1-0.1 0.2-0.2 0-0.1 0.1-0.1 0.1-0.1 0.2-0.2 0.1-0.1 0.2-0.1 0.1-0.1 0.1-0.1 0.1-0.1 0.2-0.2 0.1 0 0.2-0.1 0.1 0 0.2-0.1 0.1 0 0.2 0 0-0.1 0.1-0.1 0.1 0 0.2 0 0.1 0 0.2 0 0.1 0 0.1 0.1 0.1 0 0.2 0 0 0 0.1 0.1 0 0 0.1 0 0 0.1 0 0.1 0 0 0 0.1 0.1 0 0.1 0 0 0 0 0.1 0 0 0 0 0 0 0 0 0 0 0 0 0 0 0 0 0 0 0 0 0 0 0 0 0-0.1-0.1-0.1 0 0 0 0 0-0.1 0-0.1-0.1 0-0.1 0 0 0-0.1-0.1 0 0-0.1 0 0 0-0.1 0-0.1 0-0.1 0-0.1 0-0.1 0-0.1 0-0.2 0-0.1 0-0.1 0.1-0.1 0-0.2 0-0.1 0.1-0.1 0.1-0.1 0.1-0.2 0.1 0 0.1-0.1 0.2-0.1 0-0.1 0.1-0.1 0.1-0.2 0.1 0 0.1-0.1 0.2-0.1 0.1-0.2 0.1 0 0.1-0.1 0.2-0.1 0.1-0.1 0.2-0.1 0.1-0.2 0.2 0 0-0.1 0.1-0.1 0.1-0.1 0.2-0.1 0.1-0.2 0.2 0 0.1-0.1 0.2v0.1l-0.1 0.1q0 0 0 0l0.1 0.1q0 0 0 0 0 0 0 0.1 0 0 0.1 0 0 0.1 0 0.1 0.1 0.2 0.2 0.5 0 0.2 0.1 0.4 0 0.3 0 0.5 0 0.3-0.1 0.5 0 0.2-0.1 0.4-0.1 0.2-0.2 0.4 0 0.2-0.2 0.3-0.1 0.2-0.2 0.4-0.1 0.1-0.2 0.2-0.1 0.1-0.2 0.2-0.1 0.1-0.2 0.2-0.1 0.1-0.3 0.1-0.1 0.2-0.2 0.2-0.1 0.1-0.1 0.1 0 0 0-0.1z"></path>
					<path id="Path_139697" class="s34" d="m340.1 188.1c0 0 3.1-4.2 4.8-2.5 1.8 1.6 1 1.8 1 1.8z"></path>
					<path id="Path_139698" class="s34" d="m356.1 186.7c0 0-0.9-0.9 0.4-2.2 2.4-2.4 8 4.2 8 4.2z"></path>
					<path id="Path_139699" class="s37" d="m359 191.5q0.1-0.1 0.2-0.2 0.1-0.1 0.2-0.2 0.1 0 0.3-0.1 0.1 0 0.2 0c0.9 0 1.6 1.1 1.6 2.6 0 1.4-0.7 2.5-1.6 2.5-0.9 0-1.6-1.1-1.6-2.5q0-0.2 0-0.4 0.1-0.1 0.1-0.3 0-0.1 0-0.3 0.1-0.1 0.1-0.3"></path>
					<path id="Path_139701" class="s37" d="m344.8 192.6q0 0 0.1-0.1 0.1 0 0.2-0.1 0 0 0.1 0 0.1 0 0.2 0c0.6 0 1.1 0.8 1.1 1.8 0 1.1-0.5 1.9-1.1 1.9-0.7 0-1.2-0.8-1.2-1.9q0-0.1 0-0.2 0-0.2 0.1-0.3 0-0.1 0-0.3 0.1-0.1 0.1-0.2"></path>
					<path id="Path_139703" class="s32" d="m352.2 201q0.2-0.1 0.4-0.2 0.2-0.1 0.4-0.1 0.1-0.1 0.3-0.1 0.2 0 0.4 0-0.2 0.4-0.4 0.8-0.3 0.4-0.7 0.8-0.3 0.3-0.7 0.6-0.4 0.2-0.9 0.4-0.1 0.1-0.2 0.1 0 0-0.1 0-0.1 0-0.2 0-0.1-0.1-0.1-0.1-0.3-0.2-0.5-0.4-0.3-0.1-0.5-0.3-0.2-0.2-0.4-0.4-0.2-0.2-0.4-0.5 0 0 0-0.1-0.1 0-0.1-0.1 0 0 0-0.1-0.1 0-0.1-0.1c-0.1-0.5 0.2-0.4 0.5-0.3q0.4 0.2 0.8 0.3 0.5 0 0.9 0.1 0.4 0 0.8-0.1 0.4-0.1 0.8-0.2z"></path>
					<path id="Path_139704" class="s36" d="m350.9 203q0.1 0 0.1 0 0 0.1 0.1 0.1 0 0 0 0.1h0.1q0 0.1 0 0.1 0.1 0 0.1 0 0 0 0 0.1 0.1 0 0.1 0-0.1 0-0.1 0 0 0.1-0.1 0.1 0 0-0.1 0 0 0-0.1 0-0.1 0-0.3-0.1-0.1 0-0.3 0-0.1-0.1-0.2-0.2-0.2 0-0.3-0.1-0.1-0.1-0.2-0.2-0.2-0.1-0.3-0.2-0.1-0.1-0.2-0.2-0.1-0.1-0.2-0.2c-0.1-0.1-1.3-1.4-1.3-1.4q0.3-0.2 0.6-0.4 0.2-0.3 0.4-0.5 0.2-0.3 0.4-0.6 0.2-0.3 0.3-0.6 0.1-0.3 0.2-0.6 0.1-0.3 0.1-0.6 0-0.2 0.1-0.5 0-0.3 0-0.6-0.1-0.5-0.1-0.9-0.1-0.4-0.2-0.9-0.2-0.4-0.3-0.8-0.2-0.4-0.5-0.8 0-0.1-0.1-0.2-0.1-0.2-0.2-0.3-0.1-0.1-0.2-0.2-0.1-0.1-0.2-0.2-0.1-0.2-0.2-0.4 0.1 0 0.1 0.1 0.1 0 0.2 0 0.1 0.1 0.1 0.1 0.1 0.1 0.2 0.1 0 0.1 0.1 0.1 0.1 0.1 0.1 0.2 0.1 0 0.1 0.1 0.1 0 0.2 0.1 0.1 0.1 0.2 0.3 0.1 0.1 0.2 0.2 0.1 0.2 0.2 0.3 0.1 0.2 0.2 0.3 0.1 0.3 0.3 0.6 0.1 0.3 0.2 0.6 0.1 0.4 0.1 0.7 0.1 0.3 0.1 0.6c0.1 2 0.1 3.7-1.6 4.9q0.2 0.1 0.3 0.2 0.1 0.2 0.2 0.3 0.2 0.2 0.3 0.3 0.2 0.1 0.3 0.3c0.3 0.2 0.7 0.5 1 0.7q0 0.1 0 0.1z"></path>
					<path id="Path_139709" class="s32" d="m346 201.7c-0.3 0.7-1.8 0.8-3.4 0.2-1.6-0.7-2.7-1.7-2.4-2.4 0.2-0.7 1.8-0.8 3.4-0.2 1.6 0.6 2.7 1.7 2.4 2.4z"></path>
					<path id="Path_139710" class="s32" d="m366.3 198.4c0.3 1-1.4 2.4-3.9 3.1-2.4 0.6-4.6 0.2-4.9-0.8-0.3-1.1 1.5-2.5 3.9-3.1 2.5-0.6 4.7-0.3 4.9 0.8z"></path>
					<path id="Path_139711" fill-rule="evenodd" class="s38" d="m338.2 192.2q0.2-0.7 0.5-1.4 0.4-0.7 0.9-1.2 0.5-0.6 1.1-1 0.1-0.1 0.3-0.2 0.1 0 0.2-0.1 0.1 0 0.2-0.1 0.1 0 0.2-0.1 0.1 0 0.2-0.1 0.1 0 0.2-0.1 0.1 0 0.2 0 0.2-0.1 0.3-0.1 0.2-0.1 0.4-0.1 0.2-0.1 0.4-0.1 0.2 0 0.4 0 0.2-0.1 0.4-0.1 0.2 0 0.3 0.1 0.1 0 0.2 0 0.1 0 0.1 0 0.1 0 0.2 0 0.1 0 0.2 0 1 0.2 1.8 0.6 0.9 0.5 1.6 1.2 0.7 0.7 1.1 1.6 0.5 0.8 0.6 1.8 0.4-0.1 0.8-0.2 0.3-0.1 0.7-0.1 0.4 0.1 0.8 0.1 0.3 0.1 0.7 0.3 0.1-1 0.5-1.9 0.4-0.9 1-1.7 0.7-0.8 1.5-1.3 0.8-0.5 1.8-0.8 0.8-0.3 1.7-0.3 0.8 0 1.7 0.2 0.8 0.2 1.6 0.6 0.7 0.4 1.4 1 0.3 0.2 0.5 0.5 0.3 0.3 0.5 0.6 0.2 0.4 0.4 0.7 0.2 0.4 0.3 0.7l6.2-1 1-0.1 1.7-0.3v0.2l0.1 0.3 0.1 0.5h-0.2l-0.9 0.2h-0.1l-0.4 0.1h-0.4l-0.3 0.1h-0.3l-2.6 0.4-3.6 0.6q0.1 0.2 0.1 0.4 0 0.2 0.1 0.3 0 0.2 0 0.4 0 0.2 0 0.3c0 1.8-0.7 3.5-1.9 4.7-1.2 1.3-2.9 2-4.7 2-1.7 0.1-3.4-0.6-4.7-1.7-1.3-1.2-2.1-2.9-2.1-4.6q-0.4-0.2-0.7-0.3-0.4-0.1-0.8-0.1-0.4 0-0.7 0.1-0.4 0.1-0.7 0.3 0 0.1 0 0.2 0 0.1 0 0.2-0.1 0.2-0.1 0.3 0 0.1 0 0.2-0.1 0.2-0.1 0.3 0 0.2-0.1 0.4-0.1 0.1-0.1 0.3-0.1 0.2-0.1 0.3-0.4 0.8-0.9 1.4-0.5 0.6-1.2 1.1-0.7 0.5-1.4 0.8-0.8 0.3-1.6 0.3-0.1 0-0.2 0 0 0-0.1 0-0.1 0-0.1 0-0.1 0-0.2 0-0.1 0-0.2 0-0.1 0-0.2 0-0.1 0-0.2 0-0.1 0-0.2 0-0.1 0-0.1 0-0.1 0-0.1 0 0 0 0 0 0 0 0-0.1 0 0-0.1 0 0 0 0 0 0 0 0 0 0 0 0 0 0 0 0 0-0.2 0-0.4-0.1-0.2 0-0.3-0.1-0.2 0-0.4-0.1-0.2 0-0.3-0.1-0.1-0.1-0.2-0.1-0.1 0-0.1-0.1-0.1 0-0.2-0.1-0.1 0-0.1 0-0.3-0.2-0.5-0.4 0 0 0 0-0.1 0-0.1 0 0 0 0 0 0 0 0 0-0.1-0.1-0.2-0.2-0.1-0.1-0.2-0.1-0.1-0.1-0.1-0.2-0.1-0.1-0.2-0.2-0.4-0.4-0.7-0.9-0.4-0.5-0.6-1-0.2-0.6-0.3-1.1-0.1-0.6-0.1-1.2 0-0.8 0.2-1.5zm16.3 3.3q0.3 0.8 0.8 1.6 0.6 0.7 1.3 1.2 0.8 0.6 1.7 0.8 0.2 0.1 0.4 0.1 0.2 0.1 0.4 0.1 0.2 0 0.4 0 0.2 0 0.4 0c2.3 0 4.3-1.3 5.2-3.5 0.9-2.1 0.4-4.6-1.2-6.2-1.6-1.6-4.1-2.1-6.2-1.2-2.2 0.9-3.5 2.9-3.5 5.2q0 1 0.3 1.9zm-15.4-0.9q0.1 0.4 0.2 0.8 0.2 0.5 0.4 0.8 0.2 0.4 0.5 0.8 0 0 0.1 0.1 0 0 0 0 0.1 0.1 0.1 0.1 0.1 0.1 0.1 0.1 0.1 0.1 0.1 0.1 0.1 0.1 0.2 0.1 0 0.1 0.1 0.1 0 0.1 0.1 0.2 0.1 0 0.2 0.1 0.1 0.1 0.2 0.1 0.1 0.1 0.2 0.2 0.1 0 0.3 0.1 0.1 0.1 0.3 0.1 0.1 0.1 0.3 0.1 0.1 0.1 0.3 0.1 0.1 0.1 0.3 0.1h0.1q0 0 0 0 0 0 0 0 0 0 0 0 0.1 0 0.1 0 0 0.1 0.1 0.1 0.1 0 0.2 0 0.1 0 0.2 0 0 0 0.1 0 0.1 0 0.2 0 1 0 1.9-0.3 0.9-0.4 1.6-1 0.7-0.7 1.1-1.6 0.5-0.8 0.5-1.8 0 0 0.1-0.1 0 0 0-0.1 0 0 0-0.1 0 0 0-0.1 0-0.1 0-0.2 0 0 0-0.1-0.1-0.1-0.1-0.2 0-0.1 0-0.2c-0.1-1.2-0.8-2.4-1.8-3.3-1-0.8-2.3-1.2-3.6-1.1-1.3 0.1-2.5 0.6-3.4 1.6-0.9 0.9-1.4 2.2-1.4 3.5q0 0.4 0.1 0.9z"></path>
					<path id="Path_139712" class="s35" d="m353.7 164.4c0 0 13.1-3.7 20.7 2.7v0.1q0.6 0.5 1.1 1 0.5 0.6 1 1.2 0.4 0.7 0.8 1.4 0.4 0.6 0.7 1.3c3.4 8.1 2.3 13.6 1 16.7q-0.2 0.4-0.4 0.8-0.2 0.3-0.4 0.7-0.2 0.4-0.5 0.7-0.2 0.3-0.5 0.7l-3.3-1.5c0 0-23.3-6.3-25.4-17.3 0.2 2 0.2 8.3-7.6 13.7q0 0-0.1-0.5-0.1-0.6-0.1-1.2-0.1-0.6-0.1-1.1-0.1-0.6-0.1-1.2 0-0.6 0-1.2c-0.1-6.9 1.4-18.1 13.2-17z"></path>
					<path id="Path_139713" class="s35" d="m367.7 195.6q0.2-0.4 0.4-1.1 0.1-0.2 0.2-0.4 0.1-0.2 0.2-0.4 0.1-0.2 0.2-0.4 0.1-0.2 0.3-0.4 0.1-0.2 0.3-0.4 0.1-0.2 0.3-0.4 0.2-0.2 0.4-0.4 0.2-0.2 0.4-0.4 0.2-0.2 0.4-0.3 0.3-0.2 0.5-0.3 0.3-0.2 0.5-0.3 0.3-0.1 0.5-0.2 0.2-0.1 0.4-0.1 0.3-0.1 0.5-0.1 0.2-0.1 0.4-0.1 0.2-0.1 0.4-0.1 0.3-0.1 0.6-0.1 0.4-0.2 0.4-0.2 0 0-0.2 0.2 0.2 0 0.4 0 0.4 0 0.4 0l-1 0.5q-0.3 0.4-0.7 1.1-0.3 0.5-0.6 1-0.2 0.5-0.5 1-0.3 0.6-0.5 1.1-0.2 0.6-0.4 1.1-0.1 0.6-0.3 1.2-0.1 0.6-0.2 1.1-0.1 0.6-0.2 1.2-0.1 0.6-0.1 1.2-0.1 1-0.2 1.5-0.1 0.6-0.1 0.6 0 0-0.1-0.6-0.2-0.5-0.4-1.5 0-0.3-0.1-0.5 0-0.3-0.1-0.6 0-0.3 0-0.6 0-0.3 0-0.6 0-0.3 0-0.7 0-0.4 0-0.7 0.1-0.4 0.2-0.7 0-0.4 0.1-0.7 0.2-0.4 0.3-0.7 0.1-0.4 0.3-0.7 0.2-0.3 0.4-0.6 0.2-0.3 0.4-0.6 0.1-0.2 0.3-0.5 0.2-0.2 0.4-0.4 0.2-0.2 0.3-0.4 0.2-0.2 0.4-0.4-0.2 0.2-0.5 0.4-0.3 0.1-0.5 0.3-0.3 0.1-0.6 0.3-0.2 0.2-0.5 0.4-0.3 0.3-0.6 0.6-0.4 0.3-0.7 0.7-0.3 0.3-0.6 0.6-0.3 0.4-0.6 0.7-0.4 0.6-0.7 0.9-0.3 0.3-0.3 0.3 0 0 0.1-0.4z"></path>
					<path id="Path_139714" class="s34" d="m351.4 164.4q0.3-0.1 0.6-0.1 0.3 0 0.6 0 0.3 0 0.5 0.1 0.3 0 0.6 0c0 0 13.1-3.7 20.7 2.7v0.1c0.5 0.4 6.9 5.1 10.6 15.3q0.3 0.9 0.6 1.9 0.3 1 0.5 1.9 0.3 1 0.5 2 0.2 1 0.3 2c-2.1-0.3-5-0.8-7.9-1.5-4.2-1-8.6-2.4-11.5-4.2-7.2-4.5-9.1-7.6-9.1-7.6l1 3.2c0 0-6.9-5.7-9.3-9.7q-0.2-0.3-0.3-0.5-0.2-0.3-0.3-0.5-0.1-0.3-0.1-0.6-0.1-0.3-0.1-0.5-0.1 0.3-0.3 0.7-0.1 0.4-0.2 0.8-0.1 0.4-0.3 0.8-0.1 0.3-0.2 0.7c-1.3 3.3-3.7 8.1-7.3 9.8q-0.1 0-0.2 0.1 0 0-0.1 0 0 0-0.1 0.1-0.1 0-0.1 0c-0.1-6.4 1.2-16.5 10.9-17z"></path>
					<path id="Path_139715" class="s39" d="m352 164.3q0.3 0 0.6 0 0.3 0 0.5 0.1 0.3 0 0.6 0c0 0 13.2-3.7 20.7 2.7v0.1c0.5 0.4 6.9 5.1 10.6 15.3q-0.4-0.1-0.8-0.2-0.3-0.1-0.7-0.2-0.3-0.1-0.7-0.2-0.3-0.1-0.7-0.2-1.6-0.4-3.2-1.1-1.6-0.6-3.1-1.4-1.5-0.9-2.9-1.9-1.4-1-2.7-2.1 0 0.5 0 1.1 0.1 0.5 0.2 1.1 0.1 0.5 0.3 1 0.1 0.5 0.4 1-2.1-0.9-4-2-1.9-1.2-3.6-2.6-1.8-1.4-3.3-3.1-1.5-1.6-2.8-3.5 0 0.4 0 0.7 0.1 0.4 0.1 0.8 0.1 0.3 0.2 0.7 0.1 0.3 0.3 0.6c-2.6-1.8-5.3-3.9-6.6-6.6q0.3-0.1 0.6-0.1z"></path>
					<g id="Group_96266">
						<path id="Path_139716" class="s40" d="m330.1 289.8q-0.3 0-0.6-0.1-0.3-0.1-0.5-0.4-0.2-0.2-0.4-0.5l-9.2-23.2q-0.2-0.3-0.2-0.6 0-0.4 0.2-0.7 0.1-0.3 0.3-0.5 0.3-0.2 0.6-0.3l12.8-5.2q0.3-0.1 0.6-0.1 0.3 0 0.6 0.2 0.3 0.1 0.6 0.3 0.2 0.2 0.3 0.5l9.3 23.3q0.1 0.3 0.1 0.6 0 0.3-0.1 0.6-0.2 0.3-0.4 0.5-0.2 0.3-0.5 0.4l-12.9 5.1q-0.3 0.1-0.6 0.1z"></path>
						<path id="Path_139717" class="s41" d="m331.6 262.3q0-0.2 0.1-0.5 0.1-0.2 0.3-0.4 0.2-0.2 0.4-0.3c0.5-0.1 1 0 1.4 0.3 0.4 0.4 0.5 1 0.3 1.4-0.2 0.5-0.7 0.8-1.2 0.8-0.5 0-1-0.3-1.2-0.8q-0.1-0.2-0.1-0.5z"></path>
					</g>
					<path id="Path_139718" class="s30" d="m324.1 293.4q-0.9-1-1.8-2.2-0.8-1.1-1.5-2.3-0.8-1.3-1.4-2.5-0.2-0.5-0.4-1-0.2-0.5-0.3-1-0.2-0.5-0.3-1-0.1-0.5-0.1-1c0 0 3.5-4.3 6.8-5.6 0 0 0.3 0.5 0.9 1.2 0.5 0.6 1.2 1.4 1.9 2.4q0.4 0.5 0.8 1.1c0.7 0.9 1.3 1.9 2 2.9q0.3 0.6 0.6 1.2 0.2 0.4 0.4 0.7 0.2 0.3 0.4 0.7 0.1 0.3 0.3 0.6 0.1 0.4 0.3 0.7 0.2 0.7 0.4 1.3 0.1 0.3 0.2 0.6 0.1 0.3 0.2 0.7 0 0.3 0.1 0.7 0 0.3 0 0.7c0 0-3.7 2.9-7.5 3.2q-1-1-2-2.1z"></path>
					<path id="Path_139719" class="s36" d="m323.7 283.6q0.1-0.1 0.1-0.2 0.1-0.2 0.2-0.3 0.1-0.1 0.2-0.3 0.2-0.2 0.5-0.5 0.2-0.3 0.5-0.5 0.3-0.3 0.6-0.5 0.3-0.2 0.6-0.4 0.2-0.1 0.4-0.1 0.2-0.1 0.3-0.2 0.2-0.1 0.4-0.1 0.2-0.1 0.4-0.1 0.4 0.5 0.8 1.1-0.7 0.5-1.5 0.9-0.3 0.2-0.6 0.3-0.3 0.2-0.6 0.3-0.3 0.1-0.7 0.3-0.3 0.1-0.6 0.2c-0.7 0.3-1.2 0.4-1.2 0.4q0.1-0.1 0.2-0.3z"></path>
					<path id="Path_139720" class="s36" d="m326.5 287.4q0.1-0.1 0.2-0.2 0.1-0.1 0.1-0.2 0.1-0.2 0.2-0.3 0.2-0.3 0.5-0.5 0.2-0.2 0.5-0.5 0.3-0.2 0.6-0.4 0.3-0.2 0.6-0.3 0.1-0.1 0.3-0.2 0.2-0.1 0.4-0.1 0.2-0.1 0.4-0.2 0.2 0 0.4-0.1 0.3 0.6 0.6 1.2-0.1 0.1-0.3 0.2-0.2 0.2-0.4 0.3-0.1 0.1-0.3 0.2-0.2 0.1-0.4 0.2-0.3 0.1-0.6 0.2-0.3 0.2-0.6 0.3-0.3 0.1-0.6 0.2-0.3 0.1-0.6 0.2c-0.7 0.2-1.1 0.3-1.1 0.3q0-0.1 0.1-0.3z"></path>
					<path id="Path_139721" class="s36" d="m328 291.6q0.1-0.2 0.1-0.3 0.1-0.1 0.2-0.2 0.1-0.1 0.2-0.3 0.3-0.2 0.5-0.5 0.3-0.2 0.6-0.5 0.3-0.2 0.6-0.4 0.3-0.2 0.6-0.4 0.2-0.1 0.5-0.2 0.2-0.1 0.4-0.2 0.3-0.1 0.5-0.1 0.2-0.1 0.5-0.2 0.2 0.7 0.4 1.3-0.2 0.1-0.4 0.2-0.1 0.1-0.3 0.3-0.2 0.1-0.4 0.2-0.2 0.1-0.4 0.2-0.3 0.2-0.7 0.3-0.3 0.2-0.6 0.3-0.3 0.1-0.6 0.2-0.4 0.1-0.7 0.2c-0.7 0.2-1.2 0.3-1.2 0.3q0.1-0.1 0.2-0.2z"></path>
					<path id="Path_139722" class="s42" d="m319 285.4q-0.2-0.5-0.3-1-0.2-0.5-0.3-1-0.1-0.5-0.1-1c0 0 3.5-4.3 6.8-5.6 0 0 0.3 0.5 0.9 1.2q0 0-0.1 0-0.1 0-0.1 0.1-0.1 0-0.2 0 0 0.1-0.1 0.1-0.4 0.3-0.7 0.6-0.4 0.3-0.8 0.6-0.3 0.3-0.7 0.6-0.3 0.3-0.6 0.6-0.4 0.3-0.6 0.6-0.3 0.3-0.6 0.6-0.3 0.3-0.5 0.6-0.2 0.3-0.5 0.7-0.2 0.3-0.4 0.7-0.1 0.4-0.3 0.9-0.1 0.4-0.2 0.8-0.1 0.4-0.2 0.9-0.2-0.5-0.4-1z"></path>
					<path id="Path_139577" class="s43" d="m349 208c0 0 4.7 1.5 7.6-2.5"></path>
				</g>
			</g>
		</g>
	</g>
</svg>