<svg xmlns="http://www.w3.org/2000/svg" width="102.857" height="90" viewBox="0 0 102.857 90">
  <g id="Group_95694" data-name="Group 95694" transform="translate(-459.488 -1662)">
    <path id="Icon_awesome-quote-left" data-name="Icon awesome-quote-left" d="M93.214,47.25H77.143V34.393A12.869,12.869,0,0,1,90,21.536h1.607a4.81,4.81,0,0,0,4.821-4.821V7.071A4.81,4.81,0,0,0,91.607,2.25H90A32.134,32.134,0,0,0,57.857,34.393V82.607A9.645,9.645,0,0,0,67.5,92.25H93.214a9.645,9.645,0,0,0,9.643-9.643V56.893A9.645,9.645,0,0,0,93.214,47.25Zm-57.857,0H19.286V34.393A12.869,12.869,0,0,1,32.143,21.536H33.75a4.81,4.81,0,0,0,4.821-4.821V7.071A4.81,4.81,0,0,0,33.75,2.25H32.143A32.134,32.134,0,0,0,0,34.393V82.607A9.645,9.645,0,0,0,9.643,92.25H35.357A9.645,9.645,0,0,0,45,82.607V56.893A9.645,9.645,0,0,0,35.357,47.25Z" transform="translate(459.488 1659.75)" fill="#c1efc8"/>
  </g>
</svg>
