<svg xmlns="http://www.w3.org/2000/svg" width="19.055" height="16.798" viewBox="0 0 19.055 16.798">
  <path id="Icon_awesome-bars" data-name="Icon awesome-bars" d="M.645,7.12H17.41a.645.645,0,0,0,.645-.645V4.864a.645.645,0,0,0-.645-.645H.645A.645.645,0,0,0,0,4.864V6.476A.645.645,0,0,0,.645,7.12Zm0,6.448H17.41a.645.645,0,0,0,.645-.645V11.312a.645.645,0,0,0-.645-.645H.645A.645.645,0,0,0,0,11.312v1.612A.645.645,0,0,0,.645,13.569Zm0,6.448H17.41a.645.645,0,0,0,.645-.645V17.76a.645.645,0,0,0-.645-.645H.645A.645.645,0,0,0,0,17.76v1.612A.645.645,0,0,0,.645,20.017Z" transform="translate(0.5 -3.719)" fill="#369845" stroke="#369845" stroke-width="1"/>
</svg>
